<?xml version="1.0" standalone="no"?>
<!DOCTYPE svg PUBLIC "-//W3C//DTD SVG 20010904//EN"
 "http://www.w3.org/TR/2001/REC-SVG-20010904/DTD/svg10.dtd">
<svg version="1.0" xmlns="http://www.w3.org/2000/svg"
 width="308.000000pt" height="308.000000pt" viewBox="0 0 308.000000 308.000000"
 preserveAspectRatio="xMidYMid meet">

<g transform="translate(0.000000,308.000000) scale(0.100000,-0.100000)"
fill="#000000" stroke="none">
<path d="M1627 2953 c-63 -134 -60 -133 -183 -133 l-50 0 -73 115 c-40 63 -75
115 -79 115 -24 0 -206 -55 -268 -81 l-75 -31 5 -37 c3 -20 8 -82 12 -137 l6
-102 -72 -46 -72 -47 -92 47 c-50 26 -105 55 -122 65 l-30 18 -71 -72 c-39
-40 -93 -101 -121 -136 l-51 -63 78 -117 78 -116 -40 -78 -39 -77 -93 0 c-51
0 -113 -3 -138 -6 -46 -7 -47 -7 -61 -59 -21 -71 -43 -179 -50 -245 l-6 -55
125 -59 125 -60 0 -57 c0 -31 2 -69 5 -85 5 -28 0 -32 -114 -102 l-119 -74 15
-56 c22 -87 64 -213 85 -255 17 -33 23 -38 46 -33 15 3 77 8 137 11 l110 6 46
-71 46 -71 -63 -121 -64 -120 25 -33 c41 -53 220 -205 243 -205 7 0 62 33 122
74 l111 73 73 -38 73 -39 7 -76 c3 -43 6 -105 6 -139 l0 -63 83 -22 c85 -23
217 -49 252 -50 16 0 33 26 83 125 l62 125 54 0 c29 0 67 3 83 6 29 6 32 2
102 -110 57 -90 78 -116 95 -116 31 0 156 36 249 72 l79 30 -6 107 c-4 58 -9
122 -11 141 -4 34 -3 36 69 81 l73 47 122 -66 123 -65 55 54 c51 50 159 176
177 207 5 9 -18 53 -69 126 l-76 113 37 76 c37 74 40 77 74 78 19 1 82 4 140
8 l105 6 27 105 c17 67 27 133 27 181 l1 76 -114 54 -115 53 -6 60 c-12 112
-12 113 100 183 55 35 106 68 114 72 12 8 11 22 -9 96 -12 49 -37 124 -54 169
l-32 81 -95 -2 c-52 -1 -114 -5 -139 -8 l-45 -5 -49 72 -48 73 63 121 63 120
-24 32 c-32 43 -226 212 -244 212 -4 0 -57 -34 -118 -77 l-110 -76 -77 39 -76
39 -6 133 c-3 73 -10 137 -15 142 -16 16 -201 60 -279 67 l-71 6 -57 -120z
m111 -519 c273 -56 507 -238 629 -489 64 -133 84 -210 90 -353 10 -227 -40
-405 -162 -577 -49 -69 -159 -177 -227 -224 -73 -49 -204 -108 -293 -132 -115
-31 -316 -32 -438 -1 -395 99 -670 431 -694 840 -15 258 90 517 285 704 123
118 272 196 442 232 90 20 273 20 368 0z"/>
</g>
</svg>
